<svg fill="#1e40af" xmlns="http://www.w3.org/2000/svg" viewBox="0 0 138.56 76.06">
  <g>
	<g>
	  <circle cx="3.72" cy="74.8" r=".82"/>
	  <circle cx="16.29" cy="74.8" r=".82"/>
	  <circle cx="6.68" cy="74.8" r="1.02"/>
	  <circle cx="19.43" cy="74.69" r=".16"/>
	  <circle cx="13.33" cy="74.8" r="1.02"/>
	  <circle cx="10" cy="74.8" r="1.02"/>
	  <circle cx=".55" cy="74.69" r=".16"/>
	</g>
	<g>
	  <circle cx="3.72" cy="71.81" r="1.11"/>
	  <circle cx="16.29" cy="71.81" r="1.11"/>
	  <circle cx="6.68" cy="71.81" r="1.39"/>
	  <circle cx="13.33" cy="71.81" r="1.39"/>
	  <circle cx="10" cy="71.81" r="1.39"/>
	  <circle cx=".56" cy="71.88" r=".2"/>
	  <circle cx="19.44" cy="71.88" r=".2"/>
	</g>
	<g>
	  <circle cx="3.72" cy="68.73" r="1.17"/>
	  <circle cx="16.29" cy="68.73" r="1.17"/>
	  <circle cx="19.43" cy="68.77" r=".23"/>
	  <circle cx="6.68" cy="68.73" r="1.46"/>
	  <circle cx="13.33" cy="68.73" r="1.46"/>
	  <circle cx="10" cy="68.73" r="1.46"/>
	  <circle cx=".55" cy="68.77" r=".23"/>
	</g>
	<g>
	  <circle cx="3.72" cy="65.48" r="1.23"/>
	  <circle cx="16.29" cy="65.48" r="1.23"/>
	  <circle cx="6.68" cy="65.48" r="1.53"/>
	  <circle cx="13.33" cy="65.48" r="1.53"/>
	  <circle cx="10" cy="65.48" r="1.53"/>
	  <circle cx=".56" cy="65.49" r=".27"/>
	  <circle cx="19.44" cy="65.49" r=".27"/>
	</g>
	<g>
	  <circle cx="3.72" cy="62.23" r="1.23"/>
	  <circle cx="16.29" cy="62.23" r="1.23"/>
	  <circle cx="6.68" cy="62.23" r="1.53"/>
	  <circle cx="19.43" cy="62.27" r=".31"/>
	  <circle cx="13.33" cy="62.23" r="1.53"/>
	  <circle cx="10" cy="62.23" r="1.53"/>
	  <circle cx=".55" cy="62.27" r=".31"/>
	</g>
	<g>
	  <circle cx="3.72" cy="59.01" r="1.29"/>
	  <circle cx="16.29" cy="59.01" r="1.29"/>
	  <circle cx="6.68" cy="59.01" r="1.61"/>
	  <circle cx="13.33" cy="59.01" r="1.61"/>
	  <circle cx="10" cy="59.01" r="1.61"/>
	  <circle cx=".56" cy="59.01" r=".34"/>
	  <circle cx="19.44" cy="59.01" r=".34"/>
	</g>
	<g>
	  <circle cx="3.72" cy="55.76" r="1.29"/>
	  <circle cx="16.29" cy="55.76" r="1.29"/>
	  <circle cx="6.68" cy="55.76" r="1.61"/>
	  <circle cx="13.33" cy="55.76" r="1.61"/>
	  <circle cx="10" cy="55.76" r="1.61"/>
	  <circle cx="19.43" cy="55.73" r=".38"/>
	  <circle cx=".55" cy="55.73" r=".38"/>
	</g>
	<g>
	  <circle cx="3.72" cy="52.67" r="1.29"/>
	  <circle cx="16.29" cy="52.67" r="1.29"/>
	  <circle cx="19.43" cy="52.64" r=".38"/>
	  <circle cx="6.68" cy="52.67" r="1.61"/>
	  <circle cx="13.33" cy="52.67" r="1.61"/>
	  <circle cx="10" cy="52.67" r="1.61"/>
	  <circle cx=".55" cy="52.64" r=".38"/>
	</g>
	<g>
	  <circle cx="3.72" cy="49.59" r="1.34"/>
	  <circle cx="16.29" cy="49.59" r="1.34"/>
	  <circle cx="19.44" cy="49.52" r=".42"/>
	  <circle cx="6.68" cy="49.59" r="1.68"/>
	  <circle cx="13.33" cy="49.59" r="1.68"/>
	  <circle cx="10" cy="49.59" r="1.68"/>
	  <circle cx=".56" cy="49.52" r=".42"/>
	</g>
	<g>
	  <circle cx="3.72" cy="46.42" r="1.34"/>
	  <circle cx="16.29" cy="46.42" r="1.34"/>
	  <circle cx="6.68" cy="46.42" r="1.68"/>
	  <circle cx="13.33" cy="46.42" r="1.68"/>
	  <circle cx="10" cy="46.42" r="1.68"/>
	  <circle cx=".55" cy="46.38" r=".45"/>
	  <circle cx="19.43" cy="46.38" r=".45"/>
	</g>
	<g>
	  <circle cx="3.72" cy="43.3" r="1.34"/>
	  <circle cx="16.29" cy="43.3" r="1.34"/>
	  <circle cx="6.68" cy="43.3" r="1.68"/>
	  <circle cx="13.33" cy="43.3" r="1.68"/>
	  <circle cx="10" cy="43.3" r="1.68"/>
	  <circle cx=".55" cy="43.26" r=".45"/>
	  <circle cx="19.43" cy="43.26" r=".45"/>
	</g>
	<g>
	  <circle cx="3.72" cy="40.21" r="1.34"/>
	  <circle cx="16.29" cy="40.21" r="1.34"/>
	  <circle cx="6.68" cy="40.21" r="1.68"/>
	  <circle cx="13.33" cy="40.21" r="1.68"/>
	  <circle cx="10" cy="40.21" r="1.68"/>
	  <circle cx=".56" cy="40.21" r=".49"/>
	  <circle cx="19.44" cy="40.21" r=".49"/>
	</g>
	<g>
	  <circle cx="3.72" cy="37.01" r="1.34"/>
	  <circle cx="16.29" cy="37.01" r="1.34"/>
	  <circle cx="6.68" cy="37.01" r="1.68"/>
	  <circle cx="13.33" cy="37.01" r="1.68"/>
	  <circle cx="10" cy="37.01" r="1.68"/>
	  <circle cx=".56" cy="37.02" r=".49"/>
	  <circle cx="19.44" cy="37.02" r=".49"/>
	</g>
	<g>
	  <circle cx="3.72" cy="33.81" r="1.34"/>
	  <circle cx="16.29" cy="33.81" r="1.34"/>
	  <circle cx="6.68" cy="33.81" r="1.68"/>
	  <circle cx="13.33" cy="33.81" r="1.68"/>
	  <circle cx="10" cy="33.81" r="1.68"/>
	  <circle cx=".55" cy="33.88" r=".52"/>
	  <circle cx="19.43" cy="33.88" r=".52"/>
	</g>
	<g>
	  <circle cx="3.72" cy="30.72" r="1.4"/>
	  <circle cx="16.29" cy="30.72" r="1.4"/>
	  <circle cx="6.68" cy="30.72" r="1.75"/>
	  <circle cx="13.33" cy="30.72" r="1.75"/>
	  <circle cx="10" cy="30.72" r="1.75"/>
	  <circle cx=".55" cy="30.71" r=".52"/>
	  <circle cx="19.43" cy="30.71" r=".52"/>
	</g>
	<g>
	  <circle cx="3.72" cy="27.7" r="1.46"/>
	  <circle cx="16.28" cy="27.7" r="1.46"/>
	  <circle cx="6.68" cy="27.7" r="1.82"/>
	  <circle cx="13.32" cy="27.7" r="1.82"/>
	  <circle cx="10" cy="27.7" r="1.82"/>
	  <circle cx=".56" cy="27.69" r=".56"/>
	  <circle cx="19.44" cy="27.69" r=".56"/>
	</g>
	<g>
	  <circle cx="3.72" cy="24.51" r="1.11"/>
	  <circle cx="16.29" cy="24.51" r="1.11"/>
	  <circle cx="6.68" cy="24.51" r="1.39"/>
	  <circle cx="13.33" cy="24.51" r="1.39"/>
	  <circle cx="10" cy="24.51" r="1.39"/>
	  <circle cx=".55" cy="24.53" r=".52"/>
	  <circle cx="19.43" cy="24.53" r=".52"/>
	</g>
	<g>
	  <circle cx="3.72" cy="21.36" r=".36"/>
	  <circle cx="16.29" cy="21.36" r=".36"/>
	  <circle cx="6.67" cy="21.36" r=".44"/>
	  <circle cx="13.32" cy="21.36" r=".44"/>
	  <circle cx="9.99" cy="21.36" r=".44"/>
	  <circle cx=".56" cy="21.36" r=".2"/>
	  <circle cx="19.44" cy="21.36" r=".2"/>
	</g>
	<g>
	  <path d="m3.39,5.92s-.1,0-.05.05c.05.05,0,0,.05-.05Z"/>
	  <path d="m2.81,6.46s-.14-.05-.14,0-.05.05-.05.1c.05,0,.14,0,.19-.1Z"/>
	  <path d="m3.15,6.65s-.05.15,0,.15.05-.15,0-.15Z"/>
	  <path d="m2.52,6.12s.1-.05.14-.05,0-.1-.05-.1-.1.1-.14.1-.05-.05-.1-.05,0,.1,0,.1c0,0-.1.1-.1.15.1.1.14-.05.24-.15Z"/>
	  <path d="m1.94,5.73s.19-.1.19-.15c0-.15-.19-.05-.29,0,0,.1.05.19.1.15Z"/>
	  <path d="m17.52,13.56s-.14.05-.19.05-.1.05-.14.1c-.1,0-.19.05-.29.1h-.19c-.05-.19-.1-.39-.14-.58v-.29l.19-.1s.14-.05.19-.1c.05-.05.1-.1.1-.19s.1-.1.19-.19c.1-.1.14.05.24,0,.1-.05.1-.1.14-.1h.29c0,.19.14.29.24.34l.1-.19v-.24h.1l.05-.19-.05.05s-.14-.05-.24-.1,0-.05,0-.05c-.05-.1-.14-.15-.24-.1-.1-.05-.05-.1.1-.1.05-.05.1-.05.14-.1.14.05.29.1.43.19.43-1.36.53-2.82.34-4.23-.05-.24-.1-.49-.14-.73-.1,0-.19,0-.29.05-.05,0-.1.1-.14.15-.14.15-.24.29-.39.44.05.05.19,0,.29,0,0,.1.1.19.05.29-.05.1-.05.05-.05.1s.05.1,0,.19c-.1.19-.29.39-.48.53h-.1c-.1.05-.1.19-.24.24,0,.1.1.15.1.24s-.05.1-.05.19-.1.05-.14,0c-.05-.05,0-.15,0-.24s0-.05-.05-.05t-.05-.1h-.14s-.05-.1-.1-.15c-.05.05-.1.1-.14.1,0,.05,0,.15.05.19.05.05.14-.1.19,0,0,.1-.05.15-.1.19.05.19.24.53-.05.63-.05.1-.14.24-.24.29-.1,0-.19.05-.29.1h-.1s-.14.05-.19.1c0,.15.14.19.19.34v.1s-.1.1-.14.15l-.1.05s-.05.05-.1.05-.1-.1-.14-.15c-.05-.05-.05-.15-.14-.1v.19c0,.1.14.19.24.29v.05s.14.15,0,.19c-.1-.05-.14-.1-.24-.15-.05-.1-.1-.19-.19-.29-.05-.15,0-.39-.1-.53-.05,0-.05.05-.1.05s-.05-.19-.1-.29c-.05-.1-.1-.1-.1-.19-.1,0-.14.05-.24.05-.1.19-.34.24-.48.39,0,.15-.05.24-.05.44t-.1.05c-.14-.1-.14-.29-.24-.44,0-.05,0-.1-.05-.1,0-.15-.05-.24-.05-.39-.05,0-.05.05-.1.05-.1-.05-.14-.15-.19-.24l-.58-.19c-.05-.1-.19-.05-.24,0-.1-.05-.19-.15-.24-.24t-.05.05c0,.1.05.24.1.34h.29s.1.05.14.05l.14.1c0,.15-.14.24-.19.34-.1.05-.19.1-.24.19h-.1c-.1.1-.24.15-.39.15-.05-.1-.05-.19-.1-.24-.05-.05-.1-.1-.14-.15,0-.1-.05-.19-.05-.29-.05-.05-.1-.05-.19-.15-.1-.1-.05-.05-.05-.05,0,0-.05-.24-.14-.19-.1.05.05.15.05.24.05.1.1.19.14.29.05.05.1.05.1.15s0,.15.05.19c.05.05.24.15.24.29.14.1.39-.05.53,0-.1.19-.19.39-.24.58-.05.05-.1.1-.19.15-.05.05-.14.1-.19.1-.05.05-.05.15-.1.24-.05.1,0,.19,0,.24s.05,0,.1.05c0,.15,0,.24-.05.39-.1.1-.19.15-.34.24v.29c0,.1-.14.1-.19.19,0,.19-.05.24-.14.34-.1.1-.1.15-.14.19,0,0-.05,0-.05-.05-.14,0-.29.1-.43,0,0-.19-.05-.39-.19-.53v-.24s-.05-.1-.1-.15l-.05-.1-.05-.05c-.05-.1,0-.19,0-.29t.1-.1v-.29c-.05-.1-.14-.19-.19-.29v-.39c-.1-.1-.34-.05-.39-.19-.05,0-.1.1-.19.1h-.29c-.1,0-.14.05-.19.05s-.19-.1-.29-.1t-.05-.1s-.05-.05-.05-.1-.1-.05-.14-.1c0-.05-.05-.1-.05-.15-.05-.1-.1-.15-.1-.24,0-.05,0-.15.05-.24.05-.1,0-.24.05-.34.05-.1.1-.15.14-.19.1-.1.14-.19.24-.29v-.1c.1-.1.24-.24.34-.34.05,0,.14.05.19.05.14-.05.29-.15.48-.19.05.1.19,0,.29,0s.05.05.05.15c0,.05.05.1.05.1,0,.05-.05.05-.05.1.05.05.14.05.19.1.05.05.1.15.19.15h.14s0-.1.05-.1h.24c.1,0,.05.05.1.05h.19s.1,0,.1.05c.05,0,.05.05.1.05s.1-.15.14-.19c.05-.05.1-.15.1-.24-.05-.1-.1,0-.19,0-.19.05-.34-.05-.48-.19v-.19c.19-.1.43.05.68,0,.14-.19-.24-.15-.29-.29.05-.05.1-.05.14-.1-.05-.05-.19.05-.29.05,0,.05.05.1.05.15s-.14.15-.29.1c0,.05-.05.1-.1.1,0,.05.05.1.05.15-.1.24-.24-.1-.29-.24v-.24s-.1,0-.14-.05c-.05-.05-.1-.19-.19-.19,0,.15.1.19.19.29.1.1.14.1.14.19s-.05,0-.05,0c0,0,0,.19-.1.15,0-.05.05-.1,0-.15-.05-.05-.14-.1-.19-.19-.05-.1-.1-.24-.19-.24s-.14.15-.34.1c-.05.05-.05.1-.05.15l-.29.15v.15s-.1.1-.14.15h-.43s0-.19,0-.29v-.24s.1-.05.14-.05.05.05.1.05c.1,0,.14,0,.24-.05.05-.1,0-.24-.05-.34-.05,0-.1-.05-.14-.05-.05-.1.1-.1.14-.19.05-.1.05.05.1.05.1-.1.19-.19.34-.29,0-.05.05-.1.05-.15.1.05.14,0,.19-.05,0-.15-.05-.44.14-.39,0,.05,0,.1-.05.15.05.05.05.1.05.1.14.1.39-.1.48.05.05-.05.1-.1.14-.15v-.24s.05-.05.1-.05c-.05-.05,0-.1.05-.15.05-.05.24,0,.29-.1-.05-.15-.19.05-.29,0-.1-.05-.1-.1-.19-.15.05-.1,0-.15,0-.24.05-.05.05-.15.1-.19.05-.05.1-.1.1-.19,0-.05-.05-.1-.05-.1-.05,0-.1,0-.14.05v.24s-.1.05-.1.05c0,0-.05.1-.05.15s-.05.05-.05.05v.05s-.05.05-.05.1.1.05.1.1-.1.1-.1.1c-.05.29-.05.44-.05.53-.05,0-.05.1-.14.1s0-.05,0-.1-.1-.1-.1-.15.05-.1.05-.15c-.1-.05-.19,0-.24.1-.05,0-.14-.05-.19-.1,0-.1.05-.1.1-.19.05-.1-.05,0-.1-.05v-.1s.1-.05.14-.1l.39-.34c0-.15.05-.19.14-.24.05-.1.1-.24.14-.34.05-.05.1-.05.14-.1,0-.05.05-.1.1-.15.05,0,.05.05.1,0,.05-.05-.05-.1-.05-.1.1,0,.19,0,.29-.05.05.05.1.05.1.15s-.05.1-.05.15.1,0,.14-.05c.05.05.1.05.14.1.05.05.14.05.24.1,0,.15.14.15.24.19-.05.1-.1.19-.14.24-.14-.05-.29-.15-.43-.19-.05.1.1.15.14.19.05.05.05.1.05.19.05.05.1.05.14.05s.05-.05.05-.1c.05,0,.1,0,.14-.05,0-.1.05-.15.1-.19l.1-.05v-.29c0-.1.14-.05.14,0s-.05.1-.05.15.05.1.05.1c.05,0,.05-.05.05-.1.1-.1.19-.19.34-.19,0,.05-.1.1-.1.15,0,.1,0,.19.05.24.1-.05.05-.15.05-.19s.05-.1.05-.1c.05-.05.05-.1.05-.1,0,0,.14,0,.19-.05.05-.05.05.05.1.05s.05-.15.1-.19c.05-.05.19.1.34.1.05.05.05.15.1.15.14-.1-.1-.19-.1-.29,0-.05,0-.15.05-.19v-.19s.1-.15.14-.19c.05-.05.14,0,.14.05,0,.1-.1.19-.05.29,0,.05.05.05.05.1v.1c.05.15,0,.34-.05.49-.05.05-.19,0-.19.15.1,0,.24-.1.34,0,.14-.05-.05-.39.05-.44.1.05,0,.24.14.29.05.1.05.19.1.24,0-.15-.05-.29-.1-.39,0-.1-.05-.1-.05-.19-.1-.05-.1-.19-.14-.29-.05-.1-.1-.1-.1-.15.05-.1.05-.15.14-.24.1.05.19.05.29.05,0,.1-.05.1-.05.24.05.05.14,0,.19,0,.1.19.19.44.24.63.1,0,.1-.1.05-.19-.05-.1-.14-.19-.14-.29,0-.05-.05-.15-.05-.19-.05-.05-.1-.05-.1-.05,0-.19-.14-.29.05-.39.1,0,.24,0,.34.05,0-.05-.1-.1-.1-.15s0-.15.05-.19c.1-.05.19-.05.34-.05.05,0,.1-.05.1-.05.05-.05.19-.1.29-.05.05,0,.1.05.14.05s.1-.19.14-.24c.05-.05.14-.05.19-.05.1.05.1.15.14.19l.1.05c.1.1.24.15.19.29-.05.05-.1.05-.19.1-.05.05-.1.1-.14.15,0,.05-.05.1-.1.1-.1.05-.24.15-.34.19.05.1.14,0,.24-.05.1-.05.19-.1.24-.19h.14s.05.05.05.05h.14s.14.05.24.1c.1,0,.19,0,.29-.05,0,0,0-.1.05-.1.14,0,.24,0,.34.05,0,.05-.05.1-.05.15s.14.24.14.34c.05-.05.1-.15.14-.19.05,0,.05.05.1.1h.14C16.17,1.35,12.36-.54,8.55.14c-1.59.19-3.09.88-4.29,1.95.1-.05.19-.1.29-.15s.14-.1.24-.1c.19,0,.39-.1.58-.1,0,.05.05.05.05.1.1,0,.14-.1.19-.05.05.05.1.15.14.19-.05.05-.1.15-.14.19h-.19s-.1.1-.1.15c.05.05.1-.05.19,0-.05.1-.1.15-.14.24-.05.1-.14.1-.19.19-.05.1-.05.19-.1.29-.1.05-.14.15-.24.24-.05.05-.1.1-.1.15s.05.1,0,.19c-.05.1-.1.05-.1.1-.19,0-.43-.05-.63-.15,0-.1.05-.15.1-.24.05,0,.05-.05.1-.05.05.1.1.15.19.15.05,0,0-.1,0-.15s-.14-.05-.14-.1.1-.05.14-.1-.1,0-.14,0c0-.15.05-.24.1-.34.05.05.1.1.14.1s0-.15.05-.24c.05-.05.1-.05.14-.1-.1-.15-.19,0-.34.05h-.1s-.1.05-.14.05-.05-.05-.1-.05h-.1s-.05-.05-.1-.05c-.19.19-.39.44-.58.68l.14.1s.05-.1.1-.1c.1.05.14.15.19.24h-.24s-.05.15-.14.15c-.05-.05,0-.1,0-.15-.1,0-.14-.05-.19-.1l-.24.34-.1.15s.05.05.05.1c-.05.05.05.05.05.05v.19c-.1.05-.24.1-.39.1v-.05l-.14.19c-.14.19-.24.39-.34.58h.05s.14.1.19.15c.05,0,.14,0,.19.05.05.05-.05.05-.05.1s.24,0,.29-.05c.05-.05.05.05.05.05,0,0,.05.1.1.1,0-.05,0-.15.05-.19.05-.05-.1,0-.1-.05.14-.1.19.05.24.05h.1l.05.05c.1,0,.19,0,.29-.05,0,.1.05.19.14.19,0-.05,0-.15.05-.19.05-.05.1-.1.05-.19s-.14-.1-.24-.19c-.1-.1.05-.24.14-.24s.19.15.24.24c-.1.1.05.15.1.19,0,.1.05.1.1.15.05.05,0-.15.05-.15s.05.19.1.19c.05-.05.05-.15.14-.19,0-.05-.05-.05-.05-.1s.1-.05.14-.05.05.05.05.05c0,0,.05.05.05.1s-.05.05-.05.1.05.1.05.15c-.1.1-.24.19-.43.19-.05.05.05.05,0,.1-.05.05-.05.1-.05.15-.05.1-.1.19-.19.19s-.24-.15-.29-.05c.05.05.19.05.24.15-.05.1-.14.05-.14.15v.39s.1,0,.14.05c.05.05,0,.15.05.19.05.05.1.05.14.05.05.05.1.05.14.05.1,0,.19-.05.29-.05.05.19,0,.44.24.49.05-.1,0-.24.05-.39,0-.05.1-.15.1-.19s-.05-.1-.05-.15c-.05-.05-.05-.1-.05-.15s.1-.1.1-.15c-.1-.1-.1-.24,0-.29h.14c.14.05.29.19.34.29v.1s.05.05.05.1.14-.05.19-.05.05-.24.14-.19c.1.05.05.1.1.19.05.1.05.15.05.24.1.1.19.15.29.24v.1s.1,0,.1.05.05.1.05.19c-.05.05-.1.1-.14.15-.05.05-.1.1-.19.15-.1.05-.19-.05-.34-.05-.05.05-.1.05-.19.1q-.1.05-.1.1c.1,0,.14-.1.29-.1s.05.1,0,.15c-.05.05.05.05.1.1,0,.05.14,0,.14.1-.1.1-.19.15-.29.15-.05-.05.05-.1,0-.1-.1.05-.19.1-.29.1-.05.05,0,.15,0,.19s-.14,0-.19.05c-.05.05-.05.1-.1.19-.05.05-.1.05-.14.1-.05.05.05.15.05.19-.1.15-.24.19-.34.34,0,.1.1.39,0,.39s-.05-.19-.1-.24c-.14-.05-.29-.1-.43-.1-.05.05-.05.1-.1.1s-.19-.05-.24-.05-.05.1-.1.15c-.05.05-.1.05-.1.05v.29s.05.05.05.1.1.24.19.24h.14s.05-.1.1-.19c.1,0,.19-.1.29-.05,0,.15-.1.29,0,.39.1,0,.19-.15.29-.05,0,.15,0,.29.05.39h.24s.1.15.14.19c.05,0,.05-.05.05-.05,0,0,.05,0,.1-.05.05-.05.1-.1.19-.1s-.05.15,0,.19c.05.05.05-.1.1-.15.05-.05.1.05.14.1.05.05.19-.05.24-.05s.1.1.14.15c.05,0,.05.05.1.05.05.05.05.1.1.15h.29c.05.1.19.15.19.29s-.05.1-.1.19c-.05.1.14,0,.19,0,.05-.05.14-.05.24-.05.05,0,0,.1.05.1h.29c.1,0,.1.05.14.1.05.05.1,0,.14.05.05.05.05.1.05.19s-.1.1-.1.15-.1.1-.1.19-.1,0-.1.05v.15s-.1.24-.1.34.05.05.05.1-.05.05-.05.1-.14,0-.24,0c-.05.05-.1.05-.14.1-.05,0-.1.05-.14.1-.05.05,0,.19-.05.29-.05.1-.1.1-.14.15-.05.05-.1.24-.19.24s-.14-.05-.19-.05c0,.1.05.1.05.19s-.05.15-.14.15h-.14s-.05.19-.1.19h-.14c-.1,0,0,.1,0,.19s-.1.19-.14.29c.05.05.1.05.1.15s-.1.05-.1.15t-.05.1s-.05.05-.05.1v.24c0,.1.24.05.19.24h-.29c-.1-.05-.24-.1-.19-.29-.05,0-.1-.05-.14-.05-.05-.1-.1-.24-.1-.39,0-.05.05-.05.05-.1s-.1-.05-.1-.1.05-.05.05-.05c0,0,.05.05.05,0-.05-.1.05-.19.05-.29s-.05-.05-.1-.1c.05-.1.05-.24.05-.39.05-.1.1-.15.1-.24,0-.15.05-.24.05-.39,0-.19,0-.39.05-.58,0-.05.05-.1,0-.15-.05-.05-.1-.1-.14-.15-.1-.1-.19-.19-.29-.29-.05-.05-.1-.1-.1-.15-.05-.1-.1-.24-.1-.34,0-.05.05-.05.05-.1s-.05-.05-.05-.1.05-.15.05-.19c.05,0,.1-.05.14-.1.05-.19-.05-.29-.14-.44.05-.05-.1-.05-.19-.1-.1-.05-.05-.15-.1-.19-.05-.05-.1-.05-.14-.1-.05,0-.1.05-.14,0s-.14-.15-.29-.15h-.29c-.1-.05-.19-.15-.34-.19-.14-.24-.34-.49-.48-.68,0-.05-.05-.1-.1-.1,0,.1.1.19.1.24s.05.1.05.15.05.1,0,.15c-.05.05-.1-.05-.14-.1-.05-.05-.05-.15-.1-.19-.05-.05-.1-.1-.14-.19,0-.05.05-.05.05-.1s-.1-.1-.14-.15l-.05-.05c-.1-.05-.14-.15-.14-.19-.05-.1-.1-.15-.1-.24v-.78s.1,0,.1-.1-.1-.1-.14-.15c-.05-.05-.14-.1-.19-.15v-.1s-.1,0-.14-.05c-.05-.05,0-.05-.05-.1-.05-.05-.1-.05-.1-.1v-.1.05c-1.4,5.93,3.47,10.31,7.24,10.8,3.62.49,7.19-1.17,9.12-4.28h-.1Zm.24-1.95s-.05-.05-.05-.1.1,0,.14,0c0,.05-.05.1-.1.1Zm.58-4.33c.1.05.05.15.1.19.05.05.1.15.1.19s-.05.05-.05.1v.19c0,.1-.05.05-.1.05-.05-.19-.05-.44-.05-.73t0,0Zm-.82,1.95s.1-.1.14-.15c.05-.05.1-.15.24-.15.05-.05.1-.1.1-.15.05,0,.14-.05.14-.1,0-.19.05-.39.1-.58.1-.05.19-.05.29,0v.1s-.1.1-.14.15c-.05.05-.1,0-.1.05s.05.1.05.15c0,.1,0,.15-.05.24v.1s-.1.1-.14.1c-.05.05-.1.1-.14.1h-.14s0,.05,0,.1-.05,0-.1.05c-.05.05-.1.19-.19.15-.1-.05-.05-.05-.05-.15Zm-6.37-.29c0,.1-.19.1-.19,0,.05,0,.14-.05.19,0Zm-1.16-.78h.1v.1s.1.15,0,.19c-.1.05-.1-.19-.1-.29Zm5.89-5.06s.1-.05.1-.05c.1.05.34.15.19.29-.1,0-.24,0-.34.1-.05,0-.1,0-.14-.05-.05-.05.14-.19.19-.29Zm-3.14,1.31c.05-.1.14-.19.1-.34.14-.19.29-.34.48-.49.14,0,.24,0,.29-.1h.1c.05.1.05.19,0,.29-.14,0-.24.05-.39.15-.05.05-.1.1-.19.05-.1.05-.1.24-.19.29v.24c0,.1.1.15.1.19-.14,0-.34,0-.43-.1.05-.1.05-.15.14-.19Zm-1.83-1.36s.05.1.1.15c-.05.05-.1.1-.14.1-.05-.05-.1-.19.05-.24Zm-.72-.49c.1-.05.19-.1.24-.19.1.05.14.15.19.24q.05.1.1.1s.1.1.1.15c-.05.1-.05.15-.1.24l-.05.05v.1c-.1.05-.1.1-.14.15-.14-.05-.05-.19-.05-.34h-.1s0-.1,0-.15,0,.1-.05.05c-.05-.05-.14-.1-.19-.15,0-.05.05-.15.05-.24Zm-5.45,7.49s-.1,0-.19-.05c0-.15.14-.05.24-.05.05.05,0,.1-.05.1Zm0-.15s-.05-.05-.1-.05h-.14l-.05-.05s-.14,0-.19-.05c.05-.05.14-.05.19-.05h.05c.1,0,.19.05.24.1.05,0,.1,0,.14.05.05.05-.05.05-.05.05h-.1Zm.29.19s-.1-.05-.14-.1c.1-.15.39-.1.43.05-.1-.05-.19.05-.29.05Zm-3.43-2.33s-.1-.1-.14-.19c.14-.05.19.1.24.1,0,.1-.05.1-.1.1Zm7.72-1.36s.05.1,0,.15c0,.05.05.05.05.1,0,.15.05.24.1.34v.05s.1.1.14.19q.05.1,0,.15s-.14.05-.19.05-.14.1-.19,0c-.05-.1.1-.05.1-.15s-.05-.05-.05-.05c0-.15.05-.15.1-.19-.05-.05-.05-.1-.05-.15s-.05.05-.14,0c0-.1-.05-.24-.05-.34s.1-.19.19-.15Zm-.48.53c.1,0,.14-.05.24-.1.1-.05.05.05.1.1,0,.1-.05.19-.05.24-.1,0-.19.1-.24.05-.1-.1-.1-.19-.05-.29Zm-4.15-2.72s.19-.05.29-.05v.15h-.29v-.1Zm-1.06-1.31c0-.1.1-.15.05-.24.1,0,.19.1.29.1h.19s-.05.1-.05.19.05.19.05.29c-.14.05-.34.15-.43,0,0-.05.05-.1.05-.15s-.1-.15-.14-.19Zm-.58.83s.05.05.1.05c.05-.05.24-.05.34,0,0,.1,0,.19-.05.24-.1.05-.19.1-.24.1t-.05-.1s-.1-.05-.19-.1c0-.1,0-.19.1-.19Zm.05,1.36c-.14.05-.14-.1-.29-.1s-.24.15-.29.15-.1-.05-.1-.1-.1-.05-.1-.1.24,0,.29-.05c.05-.05-.1-.05-.1-.1s-.24.05-.29,0c-.05-.05.05-.05.1-.1.05-.05-.1,0-.1,0-.05-.1.14-.15.19-.24.05.05.1.1.14.1.1-.05.19-.05.24.05.05.1,0,.1,0,.1,0,0,0-.19.14-.19s.05.1.1.19c0,.05.05.1.05.1t.1.05s-.05.24-.1.24Zm.43-.05c0,.15-.19.15-.29.1-.1-.05,0-.1,0-.15.1-.05.24,0,.29.05Zm-.19-.44s-.14-.05-.19-.1v-.05s.1-.05.1-.05c0,0-.05-.05,0-.1.05-.05.19-.1.29-.05,0,.15-.05.29-.19.34Zm.39-.1h-.14c0-.1.05-.19.14-.24.05,0,.14,0,.19.05,0,.1-.19.1-.19.19Zm.05-.39s0-.15.05-.19c-.1-.1-.34-.05-.29-.19.14,0,.24.05.39.1.05,0,.05.05.1.1.14,0,.29,0,.39-.1.1.05.24.1.24.29-.05,0-.1.05-.14.05s-.1,0-.14-.05c-.19-.05-.43.1-.58,0Zm.68,1.7s-.05.1-.1.1-.05-.05-.1-.05c0-.15,0-.24.05-.39h.05c.05.1.14.15.19.19,0,.1.1.1.1.19-.05.05-.14-.05-.19-.05Zm1.3-.39s-.1.05-.14.05-.1-.19-.24-.1c.05.15.19.19.19.39-.05.05-.14-.05-.19,0,.05.1.14.1.14.19-.1.05-.19,0-.29,0-.05-.1-.05-.15-.1-.24h-.29s-.05-.1-.05-.15c.05-.1.19-.1.24-.19.05-.1-.05-.05-.05-.1s.05-.1.1-.15c.05-.05-.05-.19-.05-.29-.05-.05-.1-.05-.14-.1-.24.05-.48,0-.72-.1,0-.05-.05-.1-.05-.15s.14-.19.19-.19.1-.05.14-.05l.19-.05s0,.15.05.19c.1,0,.24.05.34.1.1.05.14.05.24.1,0,.1,0,.19.05.29.14.1.24.19.34.29.05.1.1.1.1.24Zm-.92-.44s.05.1.05.15h-.1s-.05-.24.05-.15Zm1.21,2.63c0-.1.05-.15.1-.24.05,0,.14.05.19.1-.1.05-.19.15-.29.15Zm1.69-2.63c-.1.05-.14.15-.24.19-.1.05-.14.05-.19.1-.05.05-.14.19-.19.24-.05.24-.1.44-.19.68-.1-.05-.19-.05-.34-.1-.05-.15-.24-.29-.19-.49,0,0-.05-.05-.1-.05-.05-.15-.1-.24-.1-.34s.05-.05.1-.1c.05-.05,0-.05,0-.1s.05-.05.05-.1-.1-.15-.1-.19,0-.1-.05-.1.1,0,.1-.05,0-.1-.05-.19c-.05,0-.1.15-.19.05,0-.1,0-.19.05-.24-.05-.19-.1-.34-.24-.49-.05.05-.19.05-.29.1-.05,0-.05.05-.1.05h-.19s-.05-.1-.1-.1-.1-.1-.1-.15.19-.05.24-.1c.05-.05.14,0,.14-.05s-.1-.1-.14-.1-.29-.05-.34-.1c.05-.1.19-.15.29-.24h.1c.05-.1,0-.19-.05-.24,0-.05.05-.1.05-.15.1-.1.24-.15.29-.29.05,0,.14-.1.14-.15l.24-.1s.05.1.1.15.14-.1.19-.1c.1.05.1.15.14.24.05,0,.1-.05.14-.05,0-.05-.05-.1-.1-.15-.05-.05-.1-.1-.1-.15.1-.05.24-.1.34-.15.1.05.24.05.34,0v-.15s.14-.1.19-.15c.19,0,.34.05.53.05-.05.05-.1.1-.19.1h-.1s-.24.05-.24.1v.05c.1,0,.19-.05.29-.1.1,0,.24,0,.34-.05.05.05.14.1.19.15s-.14.1-.24.15l-.39.1s-.1,0-.1.05.14,0,.19,0c.1,0,.14-.05.24-.05.1-.05.24-.05.34,0-.05.15-.24.15-.29.29.05.05.14-.05.19-.1l.1.05c.1-.05.24-.1.39-.1.05.05.14.05.19.15-.1.05-.14.15-.24.19-.05.05-.19.05-.19.1s.05.05.14.1c.1.05-.1.1-.1.15v.19s-.1.15-.1.24v.1c0,.1-.05.15-.05.19s.14.15.1.24c-.05.1-.24.1-.29.19.05.15.14.24.19.34-.05.1-.14.1-.24.05-.14.15.14.15.19.24.05.1-.05.05-.05.05-.05.05-.14.15-.19.19-.1,0-.14,0-.19-.05Zm.39.63s.05.05.1.05.19,0,.29-.05c.1.05.14.1.24.1,0,.05-.05.1-.05.1-.05.05-.1.1-.19.15-.05,0-.05.05-.1.05-.1,0-.14-.05-.24-.05-.1-.05-.19-.24-.05-.34Zm4.49,6.91c-.05.15-.1.34-.14.49-.05.05-.14.1-.24.15-.05-.05-.1-.1-.1-.15s0-.05.05-.1c0-.15.05-.24.1-.39.05-.1.19-.24.29-.24.05,0,.1.05.1.1s0,.1-.05.15Zm1.83-1.51s-.05-.1-.05-.15.05-.1.1-.1.1.24-.05.24Zm2.85-.15c0,.1.1.1.05.24-.05.15-.1,0-.14,0s-.14,0-.1-.1c.05-.1.1-.1.19-.15Zm-.19-1.02s0,.1-.05.15h-.05c-.1,0-.05-.15.1-.15Zm-.14.44s.05-.05.1-.05.1.15.05.19c-.05.05.1.05.1.1s-.05.1-.19.1-.05-.19-.05-.34Zm0,1.17c.14.05.19-.15.29-.05,0,.1-.14.1-.19.19-.05.1.05,0,.05.05v.19s-.14.1-.19.1c0-.05-.05-.1-.1-.19.05-.15.1-.24.14-.29Zm-.58-1.22c.1.05,0,.19-.05.19s-.1-.24.05-.19Zm-.1,1.12c.14,0,.19-.15.29-.19h.05s.1-.1.14-.1.1.05.14.1c0,.05-.05.1-.1.15,0,.05.05.1.05.15-.1.1-.1.19-.14.29h-.24c-.1-.1-.29-.15-.19-.39Zm-.39.44c-.1-.1-.1-.19-.19-.29-.1-.1-.19-.15-.24-.24-.05,0-.05-.05-.1-.1-.05-.05.1-.1.14-.05s.1.05.14.1c.14.1.34.24.43.34v.19s-.1.05-.19.05Zm.19.1c.14-.05.29,0,.43.05v.1c-.14.05-.39,0-.43-.15Z"/>
	  <path d="m11.44,6.36c.1-.05.05-.19-.05-.19s-.05.15.05.19Z"/>
	  <path d="m13.13,8.06c0,.19.19.05.14-.05-.05-.1-.1.05-.14.05Z"/>
	  <path d="m14.15,8.02s.14-.05.19-.05v-.05l-.19.05s-.05,0,0,.05Z"/>
	  <path d="m12.84,8.89c0-.1-.05-.15-.05-.29,0-.05.05-.05.05-.1s-.05,0-.05,0c-.05-.05-.1-.1-.1-.24h.1s-.05-.1-.05-.15c-.14-.05-.19.1-.29.15-.05.15,0,.24.05.34,0,.05.05.05.05.1-.05.05-.05.15-.05.24.1.05.29.1.34-.05Z"/>
	  <path d="m4.02,8.11c.19.05.05-.24.14-.24s.1.1.14.1.1-.05.1-.1c-.05,0-.1-.05-.14-.05-.1-.05-.14.05-.19.05,0,.05-.05.15-.05.24Z"/>
	  <path d="m3.82,7.68c.1.05.19.05.29.05,0-.1-.24-.1-.29-.05Z"/>
	  <path d="m3.68,7.29s-.05-.15-.19-.15c0,.1.05.19.1.29.05,0,.1-.1.1-.15Z"/>
	</g>
	<g>
	  <path d="m31.09,39.72c-.87,0-1.61-.14-2.22-.43s-1.09-.62-1.42-1.02c-.33-.4-.59-.91-.77-1.54-.18-.63-.29-1.18-.33-1.66-.04-.48-.06-1.03-.06-1.66v-10.68h1.66v10.16c0,.69,0,1.23.03,1.61.02.39.09.84.21,1.37s.3.93.53,1.2c.23.27.57.51,1.03.71.45.2,1,.3,1.65.3,1.39,0,3.3-.79,5.72-2.37v-12.99h1.57v16.61h-1.57v-2.01c-.1.06-.38.24-.85.55-.46.3-.83.53-1.1.67-.27.14-.65.32-1.12.53-.47.21-.95.37-1.44.47-.48.1-.99.15-1.51.15Z"/>
	  <path d="m41.06,39.22v-16.53h1.67v1.94s.21-.13.5-.32c.29-.19.47-.31.53-.36.06-.05.23-.16.5-.32s.46-.27.56-.32.28-.14.53-.27.45-.22.61-.27c.15-.05.35-.12.59-.2.24-.08.46-.14.65-.17.19-.03.41-.06.67-.09.25-.03.5-.05.74-.05.91,0,1.69.14,2.35.42.66.28,1.16.62,1.5,1s.61.89.79,1.51.29,1.17.33,1.62c.04.45.06,1,.06,1.65v10.75h-1.61v-10.27c0-1.76-.24-3.06-.71-3.91-.48-.85-1.49-1.27-3.05-1.27-.38,0-.77.05-1.17.14-.39.09-.83.25-1.3.48-.47.23-.81.4-1.01.5-.2.1-.59.33-1.17.68s-.87.54-.89.56v13.08h-1.67Z"/>
	  <path d="m65.43,39.35l-5.28-17.08h1.89l3.66,12.39,1.13,3.69,1.25-3.79,4.18-12.3h1.71l-5.83,17.08h-2.72Z"/>
	  <path d="m81.5,39.72c-2.47,0-4.34-.64-5.61-1.92-1.27-1.28-1.91-3.44-1.91-6.47s.65-5.45,1.94-6.9c1.29-1.44,3.01-2.17,5.16-2.17,1.9,0,3.31.67,4.23,2.01s1.38,3.44,1.38,6.29v.61h-10.98c.04,1.46.22,2.67.55,3.62.32.95.79,1.66,1.41,2.14.62.48,1.28.8,1.99.98.71.17,1.57.26,2.58.26.55,0,1.25-.09,2.11-.26.86-.17,1.46-.32,1.8-.44l.33,1.46c-1.58.53-3.23.79-4.97.79Zm-5.79-9.95h9.19c0-1.93-.35-3.45-1.05-4.55-.7-1.1-1.74-1.65-3.14-1.65s-2.54.53-3.43,1.59c-.89,1.06-1.42,2.59-1.58,4.61Z"/>
	  <path d="m89.04,39.35v-16.72h1.71v2.24c.44-.73,1.08-1.35,1.92-1.85.85-.5,1.86-.75,3.04-.75.83,0,1.46.09,1.89.28l-.34,1.47c-.62-.14-1.26-.21-1.92-.21-1.84,0-3.37,1-4.59,3v12.55h-1.71Z"/>
	  <path d="m102.2,39.72c-1.59,0-3.12-.23-4.6-.7l.37-1.5c1.73.51,3.1.76,4.11.76,1.34,0,2.43-.26,3.29-.79s1.28-1.25,1.28-2.17c0-.79-.29-1.47-.88-2.02-.59-.55-1.29-.99-2.12-1.33-.82-.34-1.65-.69-2.49-1.07-.83-.38-1.54-.92-2.13-1.62-.59-.7-.88-1.57-.88-2.61,0-1.39.49-2.47,1.48-3.24.99-.77,2.3-1.16,3.92-1.16.87,0,2.09.21,3.68.64l-.34,1.44c-1.4-.41-2.63-.61-3.68-.61s-1.91.26-2.52.79c-.61.53-.91,1.2-.91,2.02s.29,1.47.87,2.02c.58.55,1.28,1,2.1,1.34.82.35,1.65.7,2.49,1.07.83.37,1.54.89,2.12,1.57.58.68.86,1.52.86,2.52,0,.88-.18,1.63-.54,2.26-.36.63-.84,1.12-1.45,1.45s-1.25.58-1.92.72-1.37.21-2.12.21Z"/>
	  <path d="m122.3,39.6c-.53,0-.95,0-1.26-.02-.31-.01-.68-.05-1.09-.12-.42-.07-.75-.17-1-.29-.25-.12-.52-.3-.79-.53-.27-.23-.48-.51-.62-.85s-.26-.75-.35-1.26c-.09-.5-.14-1.08-.14-1.73v-10.5h-2.43v-1.57h2.43v-3.39h1.61v3.39h5.22v1.57h-5.19v10.47c0,1.35.23,2.24.7,2.65.47.41,1.41.62,2.83.62.59,0,1.37-.16,2.34-.48l.42,1.48c-.95.36-1.84.54-2.67.54Z"/>
	  <path d="m128.86,45.93l2.26-6.65h-.93l-5.21-16.5h1.84l3.76,12.33.96,3.02,1.02-2.96,4.25-12.39h1.75l-8.04,23.14h-1.66Z"/>
	  <path d="m56.01,39.35v-17.08h1.8v17.08h-1.8Zm1.8-22.92h-1.8v2.23h1.8v-2.23Z"/>
	  <path d="m110.58,39.35v-17.08h1.8v17.08h-1.8Zm1.8-22.92h-1.8v2.23h1.8v-2.23Z"/>
	</g>
  </g>
  <g>
	<path d="m27.18,76.06l.57-2.34h-.28l-1.34-5.82h.65l.9,4.15.23,1.04.24-1.02,1.02-4.18h.61l-2.02,8.16h-.58Z"/>
	<path d="m30.48,73.75v-5.85h.59v2.56h2.12v-2.56h.59v5.85h-.59v-2.57h-2.12v2.57h-.59Z"/>
	<path d="m35.15,73.76v-5.85h.59v4.74s.3-.75.3-.75l1.95-3.99h.59v5.85h-.59v-4.73s-.3.75-.3.75l-1.95,3.98h-.59Z"/>
	<path d="m39.88,73.75v-5.85h1.52c.46,0,.81.13,1.05.39.24.26.36.62.36,1.08,0,.31-.06.58-.17.81-.11.23-.26.4-.44.49.23.04.42.19.58.44.16.25.25.57.25.96,0,.51-.13.92-.4,1.23s-.65.46-1.16.46h-1.6Zm.61-3.32h.85c.58,0,.88-.32.88-.95,0-.33-.08-.56-.25-.69-.17-.13-.41-.19-.74-.19h-.74v1.83Zm0,2.63h.85c.72,0,1.08-.32,1.08-.98,0-.38-.1-.64-.3-.8s-.5-.23-.9-.23h-.73v2.01Z"/>
	<path d="m45.73,73.87c-.63,0-1.12-.22-1.45-.67-.33-.45-.5-1.21-.5-2.27s.17-1.92.5-2.43c.33-.5.78-.75,1.35-.75.99,0,1.49.97,1.49,2.92v.31h-2.73c0,.45.05.82.12,1.12s.19.52.34.66c.15.15.3.25.47.3.16.05.36.08.6.08.28,0,.62-.08,1.02-.25l.11.7c-.34.19-.77.28-1.31.28Zm-1.34-3.52h2.09c0-.61-.08-1.09-.24-1.44-.16-.35-.4-.53-.71-.53s-.58.17-.78.5c-.2.34-.32.82-.36,1.47Z"/>
	<path d="m54.34,73.87c-.75,0-1.3-.24-1.64-.72-.34-.48-.51-1.25-.51-2.32,0-.95.18-1.7.54-2.25.36-.56.84-.83,1.44-.83.47,0,.86.11,1.15.33l-.19.67c-.34-.19-.66-.29-.98-.29-.41,0-.73.21-.98.62s-.36.99-.36,1.73c0,.83.12,1.42.35,1.79.23.37.65.55,1.24.55.1,0,.21,0,.31-.03.1-.02.21-.04.31-.07.1-.03.17-.05.19-.05l.1.69c-.31.13-.64.19-.98.19Z"/>
	<path d="m61.85,73.76v-5.14h-1.43v-.72h3.46v.72h-1.43v5.14h-.6Z"/>
	<path d="m48.03,76.06v-8.12h.61v.48c.41-.4.8-.6,1.17-.6.55,0,.97.25,1.27.75.3.5.45,1.2.45,2.1,0,.58-.05,1.08-.16,1.51s-.26.76-.46.99c-.2.23-.41.4-.64.51s-.49.16-.76.16c-.26,0-.54-.03-.86-.09v2.31h-.61Zm1.49-2.92c.44,0,.78-.21,1.02-.63.24-.42.36-.97.36-1.64,0-.71-.09-1.27-.27-1.7-.18-.43-.5-.64-.95-.64-.31,0-.66.18-1.04.55v3.94s.08.01.18.04c.1.03.2.04.31.06.11.01.24.02.39.02Z"/>
	<path d="m56.17,73.76v-5.85h.59v4.74s.3-.75.3-.75l1.95-3.99h.59v5.85h-.59v-4.73s-.3.75-.3.75l-1.95,3.98h-.59Z"/>
	<path d="m66.16,73.93c-.63,0-1.12-.22-1.45-.67-.33-.45-.5-1.21-.5-2.27s.17-1.92.5-2.43c.33-.5.78-.75,1.35-.75.99,0,1.49.97,1.49,2.92v.31h-2.73c0,.45.05.82.12,1.12s.19.52.34.66c.15.15.3.25.47.3.16.05.36.08.6.08.28,0,.62-.08,1.02-.25l.11.7c-.34.19-.77.28-1.31.28Zm-1.34-3.52h2.09c0-.61-.08-1.09-.24-1.44-.16-.35-.4-.53-.71-.53s-.58.17-.78.5c-.2.34-.32.82-.36,1.47Z"/>
	<path d="m69.34,73.79v-5.14h-1.43v-.72h3.46v.72h-1.43v5.14h-.6Z"/>
  </g>
  <g>
	<path d="m48.48,64.11v-5.23h-1.43v-.73h3.46v.73h-1.43v5.23h-.6Z"/>
	<path d="m51.35,66.27v-8.12h.61v.48c.41-.4.8-.6,1.17-.6.55,0,.97.25,1.27.75.3.5.45,1.2.45,2.1,0,.58-.05,1.08-.16,1.51s-.26.76-.46.99c-.2.23-.41.4-.64.51s-.49.16-.76.16c-.26,0-.54-.03-.86-.09v2.31h-.61Zm1.49-2.92c.44,0,.78-.21,1.02-.63.24-.42.36-.97.36-1.64,0-.71-.09-1.27-.27-1.7-.18-.43-.5-.64-.95-.64-.31,0-.66.18-1.04.55v3.94s.08.01.18.04c.1.03.2.04.31.06.11.01.24.02.39.02Z"/>
	<path d="m45.71,64.11c-.75,0-1.3-.24-1.64-.72-.34-.48-.51-1.25-.51-2.32,0-.95.18-1.7.54-2.25.36-.56.84-.83,1.44-.83.47,0,.86.11,1.15.33l-.19.67c-.34-.19-.66-.29-.98-.29-.41,0-.73.21-.98.62s-.36.99-.36,1.73c0,.83.12,1.42.35,1.79.23.37.65.55,1.24.55.1,0,.21,0,.31-.03.1-.02.21-.04.31-.07.1-.03.17-.05.19-.05l.1.69c-.31.13-.64.19-.98.19Z"/>
	<path d="m26.25,64.11v-5.99h.59v4.85s.3-.77.3-.77l1.95-4.08h.59v5.99h-.59v-4.84s-.3.77-.3.77l-1.95,4.07h-.59Z"/>
	<path d="m30.99,64.11v-5.99h.59v2.62h2.12v-2.62h.59v5.99h-.59v-2.63h-2.12v2.63h-.59Z"/>
	<path d="m40.67,66.28l.56-2.34h-.28l-1.33-5.82h.65l.89,4.15.23,1.04.24-1.02,1.01-4.18h.61l-2.01,8.16h-.58Z"/>
	<path d="m55.79,64.11v-6h.59v4.86s.3-.77.3-.77l1.95-4.09h.59v6h-.59v-4.85s-.3.77-.3.77l-1.95,4.08h-.59Z"/>
	<path d="m73.07,63.93v-5.82h.59v2.55h2.12v-2.55h.59v5.82h-.59v-2.56h-2.12v2.56h-.59Z"/>
	<path d="m61.28,64.11c-.39,0-.68-.14-.9-.43-.21-.29-.32-.7-.32-1.24,0-.34.05-.63.15-.87s.24-.43.41-.55c.17-.12.34-.21.52-.26.17-.05.36-.08.56-.09l1.02-.02v-.79c0-.45-.08-.75-.25-.9s-.45-.23-.85-.23c-.28,0-.63.09-1.06.27l-.13-.67c.4-.23.86-.35,1.37-.35s.87.12,1.13.37.39.65.39,1.22v3.27c0,.34.13.53.4.57l-.04.67h-.11c-.2,0-.38-.06-.54-.19-.16-.13-.25-.31-.27-.56-.01,0-.06.06-.14.15-.09.09-.16.16-.23.21s-.16.11-.27.19c-.11.08-.24.13-.38.17-.14.04-.29.05-.45.05Zm.16-.69c.31,0,.73-.22,1.28-.65v-1.53l-1.02.05c-.32.01-.58.12-.76.32-.18.2-.27.45-.27.75,0,.71.26,1.06.77,1.06Z"/>
	<path d="m35.03,65.62v-2.31h.41c.21-.48.39-1.09.54-1.85.05-.24.1-.7.16-1.36s.09-1.32.1-1.99h2.52v5.19h.6v2.31h-.57v-1.59h-3.2v1.59h-.57Zm1.07-2.31h2.06v-4.48h-1.38c-.1,1.52-.19,2.51-.28,2.98-.07.43-.21.93-.4,1.5Z"/>
	<path d="m77.67,63.93v-5.81h.6v5.1h.92c.28,0,.5-.1.66-.29.16-.19.24-.47.24-.83,0-.76-.35-1.14-1.06-1.14h-.49v-.71h.54c.53,0,.93.16,1.21.47.28.32.42.78.42,1.39,0,.53-.12.97-.36,1.31-.24.34-.55.51-.95.51h-1.73Zm3.68,0v-5.81h.62v5.81h-.62Z"/>
	<path d="m69.12,63.93v-5.81h.6v5.1h.91c.28,0,.51-.1.67-.29.16-.2.24-.47.24-.83,0-.76-.36-1.14-1.07-1.14h-.49v-.71h.54c.52,0,.93.16,1.21.48.28.32.43.78.43,1.38,0,.53-.12.97-.36,1.31-.24.34-.56.51-.95.51h-1.72Z"/>
	<path d="m83.22,63.93v-5.81h.59v4.71s.3-.75.3-.75l1.98-3.96h.59v5.81h-.59v-4.69s-.3.75-.3.75l-1.98,3.95h-.59Zm1.74-6.9c-.52,0-.93-.32-1.23-.96l.3-.46c.27.45.58.67.93.67s.66-.22.93-.67l.3.46c-.3.64-.71.96-1.23.96Z"/>
	<path d="m64.26,64.11l-.2-.72c.37-.23.63-.53.77-.89.25-.66.4-2.12.45-4.38h2.48v5.81h-.59v-5.11h-1.34c-.11,2.09-.28,3.46-.52,4.11-.21.57-.56.96-1.05,1.18Z"/>
  </g>
  <g>
	<path d="m59.06,54.18v-5.85h.59v4.74s.3-.75.3-.75l1.95-3.99h.59v5.85h-.59v-4.73s-.3.75-.3.75l-1.95,3.98h-.59Z"/>
	<path d="m53.14,54.32c-.75,0-1.3-.24-1.64-.72-.34-.48-.51-1.25-.51-2.32,0-.95.18-1.7.54-2.25.36-.56.84-.83,1.44-.83.47,0,.86.11,1.15.33l-.19.67c-.34-.19-.66-.29-.98-.29-.41,0-.73.21-.98.62s-.36.99-.36,1.73c0,.83.12,1.42.35,1.79.23.37.65.55,1.24.55.1,0,.21,0,.31-.03.1-.02.21-.04.31-.07.1-.03.17-.05.19-.05l.1.69c-.31.13-.64.19-.98.19Z"/>
	<path d="m46.7,54.18v-5.85h.59v2.56h2.12v-2.56h.59v5.85h-.59v-2.57h-2.12v2.57h-.59Z"/>
	<path d="m44.34,54.32c-.63,0-1.12-.22-1.45-.67-.33-.45-.5-1.21-.5-2.27s.17-1.92.5-2.43c.33-.5.78-.75,1.35-.75.99,0,1.49.97,1.49,2.92v.31h-2.73c0,.45.05.82.12,1.12s.19.52.34.66c.15.15.3.25.47.3.16.05.36.08.6.08.28,0,.62-.08,1.02-.25l.11.7c-.34.19-.77.28-1.31.28Zm-1.34-3.52h2.09c0-.61-.08-1.09-.24-1.44-.16-.35-.4-.53-.71-.53s-.58.17-.78.5c-.2.34-.32.82-.36,1.47Z"/>
	<path d="m34.03,54.23c-.55,0-.98-.23-1.3-.69-.32-.46-.5-1.11-.53-1.97h-.87v2.56h-.6v-5.82h.6v2.55h.88c.05-.85.25-1.51.58-1.98.34-.47.77-.7,1.29-.7.61,0,1.07.26,1.37.78.31.52.46,1.27.46,2.26s-.17,1.74-.52,2.24c-.34.51-.8.76-1.36.76Zm.04-.69c.83,0,1.24-.77,1.24-2.31,0-.3-.02-.58-.06-.83s-.1-.5-.18-.75-.21-.43-.39-.57c-.17-.14-.38-.21-.62-.21s-.44.07-.61.21c-.17.14-.3.33-.39.57s-.16.49-.2.75-.06.54-.06.84c0,.68.1,1.24.3,1.66.2.43.52.64.98.64Z"/>
	<path d="m36.95,54.1v-5.77h.82l1.3,5.21,1.44-5.21h.8v5.77h-.57v-3.86l.02-.94-1.3,4.8h-.8l-1.18-4.81.04.95v3.86h-.57Z"/>
	<path d="m54.98,54.23v-5.9h.6v5.9h-.6Zm3.23.09c-.42-.03-.84-.39-1.25-1.09l-1.2-2.05,1.69-2.84h.7l-1.72,2.8.89,1.45c.38.62.72.99,1.02,1.1l-.12.64Z"/>
	<path d="m63.78,54.18v-5.81h.59v4.7s.3-.74.3-.74l1.98-3.96h.59v5.81h-.59v-4.69s-.3.74-.3.74l-1.98,3.95h-.59Zm1.74-6.9c-.52,0-.93-.32-1.23-.96l.3-.46c.27.45.58.67.93.67s.66-.22.93-.67l.3.46c-.3.64-.71.96-1.23.96Z"/>
	<path d="m28.05,54.14v-6.86h-1.85v-.66h4.34v.66h-1.85v6.86h-.64Z"/>
  </g>
</svg>