<svg width="48" height="48" viewBox="0 0 48 48" fill="none" xmlns="http://www.w3.org/2000/svg">
<g filter="url(#filter0_d_109_2065)">
<rect x="44" y="2" width="40" height="40" rx="10" transform="rotate(90 44 2)" fill="white"/>
</g>
<path d="M23.7012 13.0668C23.6449 13.102 21.7043 14.9441 19.3945 17.1625C16.0512 20.3687 15.1723 21.2266 15.0984 21.3707C15.0176 21.5184 15 21.5957 15 21.8031C15 22.116 15.102 22.3551 15.3199 22.5379C15.559 22.7418 15.7137 22.7734 16.5363 22.7734H17.25V26.4473C17.25 30.0824 17.25 30.1211 17.3238 30.3145C17.4223 30.5746 17.6754 30.8277 17.9355 30.9262C18.1254 30.9965 18.1922 31 19.95 31C21.6902 31 21.7711 30.9965 21.8695 30.9297C21.9293 30.8945 22.0102 30.8031 22.0559 30.7293L22.1367 30.5957V28.0609C22.1367 25.9305 22.1437 25.5191 22.1859 25.4594C22.2352 25.3961 22.2949 25.3926 24 25.3926C25.7051 25.3926 25.7648 25.3961 25.8141 25.4594C25.8562 25.5191 25.8633 25.9305 25.8633 28.0574V30.5852L25.9406 30.7258C25.9828 30.7996 26.0707 30.8945 26.1305 30.9332C26.2395 31 26.3027 31 28.1027 30.993L29.959 30.9824L30.1348 30.8945C30.3738 30.7785 30.5883 30.5465 30.6762 30.3109C30.75 30.1211 30.75 30.0684 30.75 26.4473V22.7805L31.534 22.7664C32.3953 22.7523 32.4516 22.7418 32.7012 22.5238C33.007 22.2531 33.0984 21.7363 32.9051 21.3707C32.8277 21.2266 31.9523 20.3723 28.6055 17.1625C26.2957 14.9441 24.3586 13.102 24.2988 13.0668C24.1547 12.9754 23.8453 12.9754 23.7012 13.0668Z" fill="black"/>
<defs>
<filter id="filter0_d_109_2065" x="0" y="0" width="48" height="48" filterUnits="userSpaceOnUse" color-interpolation-filters="sRGB">
<feFlood flood-opacity="0" result="BackgroundImageFix"/>
<feColorMatrix in="SourceAlpha" type="matrix" values="0 0 0 0 0 0 0 0 0 0 0 0 0 0 0 0 0 0 127 0" result="hardAlpha"/>
<feOffset dy="2"/>
<feGaussianBlur stdDeviation="2"/>
<feComposite in2="hardAlpha" operator="out"/>
<feColorMatrix type="matrix" values="0 0 0 0 0 0 0 0 0 0 0 0 0 0 0 0 0 0 0.25 0"/>
<feBlend mode="normal" in2="BackgroundImageFix" result="effect1_dropShadow_109_2065"/>
<feBlend mode="normal" in="SourceGraphic" in2="effect1_dropShadow_109_2065" result="shape"/>
</filter>
</defs>
</svg>
