<svg width="118" height="31" viewBox="0 0 118 31" fill="none" xmlns="http://www.w3.org/2000/svg">
<path d="M0.68 30V24.56H6.12V30H0.68ZM24.3325 30.6C22.0125 30.6 19.9725 30.1333 18.2125 29.2C16.4525 28.2533 15.0792 26.9267 14.0925 25.22C13.1058 23.5133 12.6125 21.5067 12.6125 19.2V1.24L18.1325 1.2V19.16C18.1325 20.1067 18.2925 20.9667 18.6125 21.74C18.9325 22.5133 19.3725 23.18 19.9325 23.74C20.5058 24.3 21.1658 24.7333 21.9125 25.04C22.6725 25.3333 23.4792 25.48 24.3325 25.48C25.2125 25.48 26.0258 25.3267 26.7725 25.02C27.5325 24.7133 28.1925 24.28 28.7525 23.72C29.3125 23.16 29.7458 22.4933 30.0525 21.72C30.3725 20.9467 30.5325 20.0933 30.5325 19.16V1.2H36.0525V19.2C36.0525 21.5067 35.5592 23.5133 34.5725 25.22C33.5858 26.9267 32.2125 28.2533 30.4525 29.2C28.6925 30.1333 26.6525 30.6 24.3325 30.6ZM41.6359 30V1.2H47.1559L59.6759 20.4V1.2H65.1959V30H59.6759L47.1559 10.8V30H41.6359ZM71.1766 30V1.2H76.6166V24.92H89.0166V30H71.1766ZM103.996 30.6C101.116 30.6 98.6293 29.9733 96.5359 28.72C94.4559 27.4667 92.8493 25.7133 91.7159 23.46C90.5959 21.2067 90.0359 18.5867 90.0359 15.6C90.0359 12.6133 90.5959 9.99333 91.7159 7.74C92.8493 5.48667 94.4559 3.73333 96.5359 2.48C98.6293 1.22667 101.116 0.599999 103.996 0.599999C106.876 0.599999 109.356 1.22667 111.436 2.48C113.529 3.73333 115.136 5.48667 116.256 7.74C117.389 9.99333 117.956 12.6133 117.956 15.6C117.956 18.5867 117.389 21.2067 116.256 23.46C115.136 25.7133 113.529 27.4667 111.436 28.72C109.356 29.9733 106.876 30.6 103.996 30.6ZM103.996 25.48C105.823 25.5067 107.343 25.1133 108.556 24.3C109.769 23.4867 110.676 22.3333 111.276 20.84C111.889 19.3467 112.196 17.6 112.196 15.6C112.196 13.6 111.889 11.8667 111.276 10.4C110.676 8.93333 109.769 7.79333 108.556 6.98C107.343 6.16667 105.823 5.74667 103.996 5.72C102.169 5.69333 100.649 6.08666 99.4359 6.9C98.2226 7.71333 97.3093 8.86666 96.6959 10.36C96.0959 11.8533 95.7959 13.6 95.7959 15.6C95.7959 17.6 96.0959 19.3333 96.6959 20.8C97.3093 22.2667 98.2226 23.4067 99.4359 24.22C100.649 25.0333 102.169 25.4533 103.996 25.48Z" fill="white"/>
</svg>
