<svg width="49" height="49" viewBox="0 0 49 49" fill="none" xmlns="http://www.w3.org/2000/svg">
<path fill-rule="evenodd" clip-rule="evenodd" d="M24.5 0C20.4582 0.0126735 16.5543 1.47033 13.4934 4.10965C11.1475 6.13078 9.44781 8.76439 9.00987 11.4072C3.87712 12.5402 0 17.0112 0 22.4101C0 28.6818 5.23075 33.6856 11.5793 33.6856H22.9688V16.8428C22.9688 16.4367 23.1301 16.0473 23.4172 15.7601C23.7044 15.473 24.0939 15.3116 24.5 15.3116C24.9061 15.3116 25.2956 15.473 25.5828 15.7601C25.8699 16.0473 26.0312 16.4367 26.0312 16.8428V33.6856H38.857C44.4124 33.6856 49 29.3065 49 23.8035C49 18.7935 45.1964 14.7114 40.3209 14.0224C39.5767 6.1216 32.7381 0 24.5 0ZM23.4159 48.5502C23.5581 48.6928 23.7271 48.8059 23.9131 48.8831C24.0992 48.9603 24.2986 49 24.5 49C24.7014 49 24.9008 48.9603 25.0869 48.8831C25.2729 48.8059 25.4419 48.6928 25.5841 48.5502L34.7716 39.3632C35.0592 39.0757 35.2207 38.6857 35.2207 38.2791C35.2207 37.8725 35.0592 37.4826 34.7716 37.195C34.4841 36.9075 34.0941 36.746 33.6875 36.746C33.2809 36.746 32.8909 36.9075 32.6034 37.195L26.0312 43.7699V33.6856H22.9688V43.7699L16.3966 37.195C16.1091 36.9075 15.7191 36.746 15.3125 36.746C14.9059 36.746 14.5159 36.9075 14.2284 37.195C13.9408 37.4826 13.7793 37.8725 13.7793 38.2791C13.7793 38.6857 13.9408 39.0757 14.2284 39.3632L23.4159 48.5502Z" fill="white"/>
</svg>
